<?xml version="1.0" encoding="utf-8"?>
<!-- Generator: Adobe Illustrator 23.0.4, SVG Export Plug-In . SVG Version: 6.00 Build 0)  -->
<svg version="1.1" id="Layer_1" xmlns="http://www.w3.org/2000/svg" xmlns:xlink="http://www.w3.org/1999/xlink" x="0px" y="0px"
	 viewBox="0 0 147.26 806.66" style="enable-background:new 0 0 147.26 806.66;" xml:space="preserve">
<style type="text/css">
	.st0{fill:none;stroke:#FFFFFF;stroke-width:0.36;stroke-linecap:round;stroke-linejoin:round;stroke-miterlimit:10;}
</style>
<path class="st0" d="M43.45,788.96h62.27 M105.72,10.94H43.45 M43.45,633.36l-0.86,1.31l-0.9,1.26l-0.86,1.26l-0.81,1.31l-0.86,1.26
	l-0.81,1.26l-0.72,1.22l-0.77,1.22l-0.72,1.17l-0.72,1.22l-0.68,1.22l-0.72,1.22l-0.68,1.17l-0.63,1.22l-0.68,1.22l-0.63,1.17
	l-0.59,1.22l-0.63,1.17l-0.59,1.17l-0.54,1.17l-0.59,1.22l-0.54,1.22l-0.59,1.17l-0.5,1.22l-0.54,1.22l-0.5,1.17l-0.5,1.17
	l-0.45,1.17l-0.45,1.22l-0.54,1.4l-0.54,1.4l-0.5,1.4l-0.45,1.44l-0.45,1.4l-0.45,1.4l-0.36,1.22l-0.36,1.17l-0.36,1.22l-0.32,1.22
	l-0.32,1.22l-0.27,1.17l-0.32,1.17L19,686.49l-0.27,1.17l-0.32,1.44l-0.27,1.4l-0.23,1.4l-0.23,1.4l-0.23,1.44l-0.23,1.4l-0.18,1.4
	l-0.14,1.4l-0.18,1.4l-0.09,1.44l-0.14,1.4l-0.09,1.4l-0.09,1.35l-0.04,1.31l-0.05,1.31v1.35v1.31v1.31v1.26l0.05,1.26l0.04,1.31
	l0.09,1.26l0.09,1.26l0.09,1.22l0.09,1.22l0.09,1.17l0.14,1.22l0.14,1.22l0.18,1.22l0.14,1.17l0.18,1.22l0.23,1.22l0.18,1.17
	l0.23,1.22l0.23,1.17l0.27,1.17l0.23,1.17l0.27,1.22l0.27,1.22l0.32,1.17l0.32,1.22l0.32,1.22l0.32,1.17l0.36,1.17l0.36,1.17
	l0.36,1.22l0.45,1.4l0.5,1.4l0.45,1.4l0.54,1.44l0.5,1.4l0.54,1.4l0.5,1.22l0.5,1.17l0.5,1.22l0.54,1.22l0.5,1.22l0.54,1.17
	l0.54,1.17l0.59,1.17l0.54,1.17l0.72,1.44l0.72,1.4l0.72,1.4l0.77,1.4l0.77,1.44l0.77,1.4l0.81,1.4l0.81,1.4l0.86,1.4l0.86,1.44
	l0.86,1.4l0.9,1.4l0.86,1.35l0.86,1.31l0.9,1.31l0.9,1.35l0.9,1.31 M105.72,788.96l0.9-1.26l0.86-1.26l0.86-1.31l0.86-1.26
	l0.81-1.26l0.81-1.31l0.77-1.17l0.72-1.22l0.72-1.22l0.72-1.17l0.72-1.22l0.68-1.22l0.68-1.22l0.68-1.17l0.63-1.22l0.63-1.22
	l0.63-1.17l0.59-1.17l0.59-1.17l0.59-1.22l0.54-1.17l0.59-1.22l0.54-1.22l0.54-1.17l0.5-1.22l0.5-1.17l0.5-1.22l0.5-1.17l0.45-1.17
	l0.54-1.4l0.5-1.4l0.5-1.44l0.5-1.4l0.45-1.4l0.45-1.4l0.36-1.22l0.32-1.22l0.36-1.17l0.32-1.22l0.32-1.22l0.32-1.17l0.27-1.17
	l0.27-1.22l0.27-1.17l0.27-1.4l0.27-1.4l0.27-1.4l0.23-1.44l0.23-1.4l0.18-1.4l0.18-1.4l0.18-1.44l0.14-1.4l0.14-1.4l0.09-1.4
	l0.09-1.4l0.09-1.35l0.04-1.31l0.05-1.35v-1.31l0.04-1.35v-1.26l-0.04-1.26l-0.05-1.31l-0.04-1.26l-0.05-1.26l-0.09-1.31l-0.09-1.17
	l-0.09-1.22l-0.13-1.22l-0.14-1.17l-0.14-1.22l-0.14-1.22l-0.18-1.22l-0.18-1.17l-0.18-1.22l-0.23-1.22l-0.23-1.17l-0.23-1.17
	l-0.23-1.17l-0.27-1.22l-0.27-1.17l-0.27-1.22l-0.32-1.22l-0.32-1.17l-0.32-1.22l-0.32-1.17l-0.36-1.22l-0.36-1.17l-0.36-1.17
	l-0.45-1.4l-0.45-1.4l-0.5-1.44l-0.5-1.4l-0.54-1.4l-0.54-1.4l-0.5-1.22l-0.5-1.22l-0.5-1.17l-0.5-1.22l-0.54-1.22l-0.54-1.17
	l-0.54-1.17l-0.54-1.22l-0.59-1.17l-0.68-1.4l-0.72-1.4l-0.77-1.4l-0.72-1.44l-0.77-1.4l-0.81-1.4l-0.77-1.4l-0.86-1.44l-0.81-1.4
	l-0.86-1.4l-0.9-1.4l-0.86-1.4l-0.9-1.35l-0.86-1.31l-0.9-1.35l-0.9-1.31l-0.9-1.35 M105.72,633.36l0.9-1.26l0.86-1.26l0.86-1.31
	l0.86-1.26l0.81-1.26l0.81-1.31l0.77-1.17l0.72-1.22l0.72-1.22l0.72-1.17l0.72-1.22l0.68-1.22l0.68-1.22l0.68-1.17l0.63-1.22
	l0.63-1.22l0.63-1.17l0.59-1.17l0.59-1.17l0.59-1.22l0.54-1.17l0.59-1.22l0.54-1.22l0.54-1.17l0.5-1.22l0.5-1.17l0.5-1.22l0.5-1.17
	l0.45-1.17l0.54-1.4l0.5-1.4l0.5-1.44l0.5-1.4l0.45-1.4l0.45-1.4l0.36-1.22l0.32-1.22l0.36-1.17l0.32-1.22l0.32-1.22l0.32-1.17
	l0.27-1.17l0.27-1.22l0.27-1.17l0.27-1.4l0.27-1.4l0.27-1.4l0.23-1.44l0.23-1.4l0.18-1.4l0.18-1.4l0.18-1.44l0.14-1.4l0.14-1.4
	l0.09-1.4l0.09-1.4l0.09-1.35l0.04-1.31l0.05-1.35v-1.31l0.04-1.35v-1.26l-0.04-1.26l-0.05-1.31l-0.04-1.26l-0.05-1.26l-0.09-1.31
	l-0.09-1.17l-0.09-1.22l-0.13-1.22l-0.14-1.17l-0.14-1.22l-0.14-1.22l-0.18-1.22l-0.18-1.17l-0.18-1.22l-0.23-1.22l-0.23-1.17
	l-0.23-1.17l-0.23-1.17l-0.27-1.22l-0.27-1.17l-0.27-1.22l-0.32-1.22l-0.32-1.17l-0.32-1.22l-0.32-1.17l-0.36-1.22l-0.36-1.17
	l-0.36-1.17l-0.45-1.4l-0.45-1.4l-0.5-1.44l-0.5-1.4l-0.54-1.4l-0.54-1.4l-0.5-1.22l-0.5-1.22l-0.5-1.17l-0.5-1.22l-0.54-1.22
	l-0.54-1.17l-0.54-1.17l-0.54-1.22l-0.59-1.17l-0.68-1.4l-0.72-1.4l-0.77-1.4l-0.72-1.44l-0.77-1.4l-0.81-1.4l-0.77-1.4L113.6,490
	l-0.81-1.4l-0.86-1.4l-0.9-1.4l-0.86-1.4l-0.9-1.35l-0.86-1.31l-0.9-1.35l-0.9-1.31l-0.9-1.35 M105.72,477.75l0.86-1.22l0.81-1.22
	l0.86-1.22l0.81-1.22l0.77-1.26l0.81-1.22l0.77-1.22l0.81-1.35l0.81-1.35l0.81-1.35l0.77-1.35l0.77-1.35l0.77-1.31l0.72-1.35
	l0.72-1.35l0.72-1.35l0.68-1.35l0.68-1.31l0.63-1.35l0.63-1.31l0.59-1.35l0.63-1.31l0.59-1.35l0.54-1.35l0.59-1.35l0.5-1.35
	l0.54-1.31l0.5-1.35l0.5-1.31l0.45-1.35l0.45-1.35l0.45-1.35l0.41-1.35l0.45-1.35l0.36-1.31l0.41-1.35l0.36-1.35l0.32-1.35
	l0.36-1.35l0.27-1.35l0.32-1.35l0.27-1.35l0.27-1.31l0.23-1.35l0.23-1.31l0.23-1.31l0.18-1.35l0.18-1.35l0.18-1.35l0.14-1.35
	l0.14-1.35l0.14-1.35l0.09-1.35l0.09-1.35l0.05-1.35l0.04-1.35l0.05-1.35l0.04-1.35v-1.35l-0.04-1.35v-1.26l-0.05-1.22l-0.04-1.26
	l-0.09-1.22l-0.09-1.26l-0.09-1.22l-0.14-1.35l-0.14-1.35l-0.13-1.35l-0.18-1.35l-0.18-1.35l-0.23-1.31l-0.18-1.31l-0.23-1.35
	l-0.27-1.31l-0.27-1.35l-0.27-1.35l-0.32-1.35l-0.32-1.35l-0.32-1.35l-0.36-1.35l-0.36-1.35l-0.41-1.35l-0.36-1.35l-0.45-1.35
	l-0.41-1.35l-0.45-1.35l-0.5-1.35l-0.45-1.35l-0.45-1.22l-0.5-1.26l-0.45-1.22l-0.5-1.26l-0.54-1.22l-0.5-1.26l-0.59-1.35
	l-0.63-1.31l-0.63-1.35l-0.63-1.35l-0.63-1.35l-0.68-1.35l-0.68-1.35l-0.68-1.26l-0.63-1.22l-0.68-1.26l-0.68-1.22l-0.72-1.26
	l-0.72-1.22l-0.72-1.26l-0.72-1.22l-0.77-1.26l-0.77-1.22l-0.77-1.26l-0.81-1.22l-0.77-1.17l-0.77-1.17l-0.77-1.17l-0.81-1.17
	l-0.81-1.17 M105.72,322.15l0.9-1.26l0.86-1.26l0.86-1.31l0.86-1.26l0.81-1.26l0.81-1.31l0.77-1.17l0.72-1.22l0.72-1.22l0.72-1.17
	l0.72-1.22l0.68-1.22l0.68-1.22l0.68-1.17l0.63-1.22l0.63-1.22l0.63-1.17l0.59-1.17l0.59-1.17l0.59-1.22l0.54-1.17l0.59-1.22
	l0.54-1.22l0.54-1.17l0.5-1.22l0.5-1.17l0.5-1.22l0.5-1.17l0.45-1.17l0.54-1.4l0.5-1.4l0.5-1.44l0.5-1.4l0.45-1.4l0.45-1.4
	l0.36-1.22l0.32-1.22l0.36-1.17l0.32-1.22l0.32-1.22l0.32-1.17l0.27-1.17l0.27-1.22l0.27-1.17l0.27-1.4l0.27-1.4l0.27-1.4l0.23-1.44
	l0.23-1.4l0.18-1.4l0.18-1.4l0.18-1.44l0.14-1.4l0.14-1.4l0.09-1.4l0.09-1.4l0.09-1.35l0.04-1.31l0.05-1.35v-1.31l0.04-1.35v-1.26
	l-0.04-1.26l-0.05-1.31l-0.04-1.26l-0.05-1.26l-0.09-1.31l-0.09-1.17l-0.09-1.22l-0.13-1.22l-0.14-1.17l-0.14-1.22l-0.14-1.22
	l-0.18-1.22l-0.18-1.17l-0.18-1.22l-0.23-1.22l-0.23-1.17l-0.23-1.17l-0.23-1.17l-0.27-1.22l-0.27-1.17l-0.27-1.22l-0.32-1.22
	l-0.32-1.17l-0.32-1.22l-0.32-1.17l-0.36-1.22l-0.36-1.17l-0.36-1.17l-0.45-1.4l-0.45-1.4l-0.5-1.44l-0.5-1.4l-0.54-1.4l-0.54-1.4
	l-0.5-1.22l-0.5-1.22l-0.5-1.17l-0.5-1.22l-0.54-1.22l-0.54-1.17l-0.54-1.17l-0.54-1.22l-0.59-1.17l-0.68-1.4l-0.72-1.4l-0.77-1.4
	l-0.72-1.44l-0.77-1.4l-0.81-1.4l-0.77-1.4l-0.86-1.44l-0.81-1.4l-0.86-1.4l-0.9-1.4l-0.86-1.4l-0.9-1.35l-0.86-1.31l-0.9-1.35
	l-0.9-1.31l-0.9-1.35 M105.72,166.54l0.9-1.26l0.86-1.26l0.86-1.31l0.86-1.26l0.81-1.26l0.81-1.31l0.77-1.17l0.72-1.22l0.72-1.22
	l0.72-1.17l0.72-1.22l0.68-1.22l0.68-1.22l0.68-1.17l0.63-1.22l0.63-1.22l0.63-1.17l0.59-1.17l0.59-1.17l0.59-1.22l0.54-1.17
	l0.59-1.22l0.54-1.22l0.54-1.17l0.5-1.22l0.5-1.17l0.5-1.22l0.5-1.17l0.45-1.17l0.54-1.4l0.5-1.4l0.5-1.44l0.5-1.4l0.45-1.4
	l0.45-1.4l0.36-1.22l0.32-1.22l0.36-1.17l0.32-1.22l0.32-1.22l0.32-1.17l0.27-1.17l0.27-1.22l0.27-1.17l0.27-1.4l0.27-1.4l0.27-1.4
	l0.23-1.44l0.23-1.4l0.18-1.4l0.18-1.4l0.18-1.44l0.14-1.4l0.14-1.4l0.09-1.4l0.09-1.4l0.09-1.35l0.04-1.31l0.05-1.35v-1.31
	l0.04-1.35v-1.26l-0.04-1.26l-0.05-1.31l-0.04-1.26l-0.05-1.26l-0.09-1.31l-0.09-1.17l-0.09-1.22l-0.13-1.22l-0.14-1.17l-0.14-1.22
	l-0.14-1.22l-0.18-1.22l-0.18-1.17l-0.18-1.22l-0.23-1.22l-0.23-1.17l-0.23-1.17l-0.23-1.17l-0.27-1.22l-0.27-1.17l-0.27-1.22
	l-0.32-1.22l-0.32-1.17l-0.32-1.22l-0.32-1.17l-0.36-1.22l-0.36-1.17l-0.36-1.17l-0.45-1.4l-0.45-1.4l-0.5-1.44l-0.5-1.4l-0.54-1.4
	l-0.54-1.4l-0.5-1.22l-0.5-1.22l-0.5-1.17l-0.5-1.22l-0.54-1.22L121.35,38l-0.54-1.17l-0.54-1.22l-0.59-1.17l-0.68-1.4l-0.72-1.4
	l-0.77-1.4l-0.72-1.44l-0.77-1.4l-0.81-1.4l-0.77-1.4l-0.86-1.44l-0.81-1.4l-0.86-1.4l-0.9-1.4l-0.86-1.4l-0.9-1.35l-0.86-1.31
	l-0.9-1.35l-0.9-1.31l-0.9-1.35 M43.45,10.94l-0.81,1.26l-0.86,1.22l-0.81,1.22l-0.81,1.22l-0.81,1.22l-0.77,1.26l-0.77,1.22
	l-0.86,1.35l-0.81,1.35l-0.81,1.31l-0.77,1.35l-0.77,1.35l-0.77,1.35l-0.72,1.35l-0.72,1.35l-0.68,1.35L30.22,33l-0.63,1.31
	l-0.63,1.35l-0.63,1.31l-0.63,1.31l-0.59,1.35l-0.59,1.35l-0.59,1.35l-0.54,1.35l-0.54,1.35l-0.54,1.31l-0.5,1.35l-0.45,1.31
	l-0.5,1.31l-0.45,1.35l-0.45,1.35l-0.41,1.35l-0.41,1.35l-0.41,1.35l-0.36,1.35l-0.36,1.35l-0.36,1.35l-0.32,1.35l-0.32,1.35
	l-0.32,1.35l-0.27,1.35l-0.23,1.31l-0.27,1.31l-0.23,1.35l-0.23,1.31l-0.18,1.35l-0.18,1.35l-0.18,1.35l-0.14,1.35l-0.14,1.35
	l-0.09,1.35l-0.14,1.35l-0.09,1.35l-0.05,1.35l-0.04,1.35l-0.05,1.35v1.35v1.35v1.35l0.05,1.22l0.04,1.26l0.05,1.22l0.05,1.26
	l0.09,1.22l0.09,1.26l0.14,1.35l0.14,1.35l0.18,1.31l0.14,1.35l0.18,1.35l0.23,1.35l0.23,1.31l0.23,1.31l0.23,1.35l0.27,1.35
	l0.32,1.35l0.27,1.35l0.32,1.35l0.36,1.35l0.32,1.35l0.41,1.35l0.36,1.35l0.41,1.35l0.41,1.35l0.45,1.35l0.45,1.31l0.45,1.35
	l0.5,1.35l0.45,1.26l0.45,1.22l0.5,1.26l0.5,1.22l0.5,1.26l0.54,1.22l0.59,1.35l0.59,1.35l0.63,1.35l0.63,1.35l0.68,1.35l0.63,1.35
	l0.72,1.35l0.63,1.26l0.68,1.22l0.63,1.26l0.72,1.22l0.68,1.22l0.72,1.26l0.72,1.22l0.72,1.26l0.77,1.22l0.77,1.26l0.81,1.22
	l0.77,1.26l0.77,1.17l0.77,1.17l0.81,1.17l0.77,1.13l0.81,1.17 M43.45,166.54l-0.86,1.31l-0.9,1.26l-0.86,1.26l-0.81,1.31
	l-0.86,1.26l-0.81,1.26l-0.72,1.22l-0.77,1.22l-0.72,1.17l-0.72,1.22l-0.68,1.22l-0.72,1.22l-0.68,1.17l-0.63,1.22l-0.68,1.22
	l-0.63,1.17l-0.59,1.22l-0.63,1.17l-0.59,1.17l-0.54,1.17l-0.59,1.22l-0.54,1.22l-0.59,1.17l-0.5,1.22l-0.54,1.22l-0.5,1.17
	l-0.5,1.17l-0.45,1.17l-0.45,1.22l-0.54,1.4l-0.54,1.4l-0.5,1.4l-0.45,1.44l-0.45,1.4l-0.45,1.4l-0.36,1.22l-0.36,1.17l-0.36,1.22
	l-0.32,1.22l-0.32,1.22l-0.27,1.17l-0.32,1.17L19,219.67l-0.27,1.17l-0.32,1.44l-0.27,1.4l-0.23,1.4l-0.23,1.4l-0.23,1.44l-0.23,1.4
	l-0.18,1.4l-0.14,1.4l-0.18,1.4l-0.09,1.44l-0.14,1.4l-0.09,1.4l-0.09,1.35l-0.04,1.31l-0.05,1.31v1.35v1.31v1.31v1.26l0.05,1.26
	l0.04,1.31l0.09,1.26l0.09,1.26l0.09,1.22l0.09,1.22l0.09,1.17l0.14,1.22l0.14,1.22l0.18,1.22l0.14,1.17l0.18,1.22l0.23,1.22
	l0.18,1.17l0.23,1.22l0.23,1.17l0.27,1.17l0.23,1.17l0.27,1.22l0.27,1.22l0.32,1.17l0.32,1.22l0.32,1.22l0.32,1.17l0.36,1.17
	l0.36,1.17l0.36,1.22l0.45,1.4l0.5,1.4l0.45,1.4l0.54,1.44l0.5,1.4l0.54,1.4l0.5,1.22l0.5,1.17l0.5,1.22l0.54,1.22l0.5,1.22
	l0.54,1.17l0.54,1.17l0.59,1.17l0.54,1.17l0.72,1.44l0.72,1.4l0.72,1.4l0.77,1.4l0.77,1.44l0.77,1.4l0.81,1.4l0.81,1.4l0.86,1.4
	l0.86,1.44l0.86,1.4l0.9,1.4l0.86,1.35l0.86,1.31l0.9,1.31l0.9,1.35l0.9,1.31 M43.45,322.15l-0.86,1.31l-0.9,1.26l-0.86,1.26
	l-0.81,1.31l-0.86,1.26l-0.81,1.26l-0.72,1.22l-0.77,1.22l-0.72,1.17l-0.72,1.22l-0.68,1.22l-0.72,1.22l-0.68,1.17l-0.63,1.22
	l-0.68,1.22l-0.63,1.17l-0.59,1.22l-0.63,1.17l-0.59,1.17l-0.54,1.17l-0.59,1.22l-0.54,1.22l-0.59,1.17l-0.5,1.22l-0.54,1.22
	l-0.5,1.17l-0.5,1.17l-0.45,1.17l-0.45,1.22l-0.54,1.4l-0.54,1.4l-0.5,1.4l-0.45,1.44l-0.45,1.4l-0.45,1.4l-0.36,1.22l-0.36,1.17
	l-0.36,1.22l-0.32,1.22l-0.32,1.22l-0.27,1.17l-0.32,1.17L19,375.28l-0.27,1.17l-0.32,1.44l-0.27,1.4l-0.23,1.4l-0.23,1.4
	l-0.23,1.44l-0.23,1.4l-0.18,1.4l-0.14,1.4l-0.18,1.4l-0.09,1.44l-0.14,1.4l-0.09,1.4l-0.09,1.35l-0.04,1.31l-0.05,1.31v1.35v1.31
	v1.31v1.26l0.05,1.26l0.04,1.31l0.09,1.26l0.09,1.26l0.09,1.22l0.09,1.22l0.09,1.17l0.14,1.22l0.14,1.22l0.18,1.22l0.14,1.17
	l0.18,1.22l0.23,1.22l0.18,1.17l0.23,1.22l0.23,1.17l0.27,1.17l0.23,1.17l0.27,1.22l0.27,1.22l0.32,1.17l0.32,1.22l0.32,1.22
	l0.32,1.17l0.36,1.17l0.36,1.17l0.36,1.22l0.45,1.4l0.5,1.4l0.45,1.4l0.54,1.44l0.5,1.4l0.54,1.4l0.5,1.22l0.5,1.17l0.5,1.22
	l0.54,1.22l0.5,1.22l0.54,1.17l0.54,1.17l0.59,1.17l0.54,1.17l0.72,1.44l0.72,1.4l0.72,1.4l0.77,1.4l0.77,1.44l0.77,1.4l0.81,1.4
	l0.81,1.4l0.86,1.4l0.86,1.44l0.86,1.4l0.9,1.4l0.86,1.35l0.86,1.31l0.9,1.31l0.9,1.35l0.9,1.31 M43.45,477.75l-0.86,1.31l-0.9,1.26
	l-0.86,1.26l-0.81,1.31l-0.86,1.26l-0.81,1.26l-0.72,1.22l-0.77,1.22l-0.72,1.17l-0.72,1.22l-0.68,1.22l-0.72,1.22l-0.68,1.17
	l-0.63,1.22l-0.68,1.22l-0.63,1.17l-0.59,1.22l-0.63,1.17l-0.59,1.17l-0.54,1.17l-0.59,1.22l-0.54,1.22l-0.59,1.17l-0.5,1.22
	l-0.54,1.22l-0.5,1.17l-0.5,1.17l-0.45,1.17l-0.45,1.22l-0.54,1.4l-0.54,1.4l-0.5,1.4l-0.45,1.44l-0.45,1.4l-0.45,1.4l-0.36,1.22
	l-0.36,1.17l-0.36,1.22l-0.32,1.22l-0.32,1.22l-0.27,1.17l-0.32,1.17L19,530.88l-0.27,1.17l-0.32,1.44l-0.27,1.4l-0.23,1.4
	l-0.23,1.4l-0.23,1.44l-0.23,1.4l-0.18,1.4l-0.14,1.4l-0.18,1.4l-0.09,1.44l-0.14,1.4l-0.09,1.4l-0.09,1.35l-0.04,1.31l-0.05,1.31
	v1.35v1.31v1.31v1.26l0.05,1.26l0.04,1.31l0.09,1.26l0.09,1.26l0.09,1.22l0.09,1.22l0.09,1.17l0.14,1.22l0.14,1.22l0.18,1.22
	l0.14,1.17l0.18,1.22l0.23,1.22l0.18,1.17l0.23,1.22l0.23,1.17l0.27,1.17l0.23,1.17l0.27,1.22l0.27,1.22l0.32,1.17l0.32,1.22
	l0.32,1.22l0.32,1.17l0.36,1.17l0.36,1.17l0.36,1.22l0.45,1.4l0.5,1.4l0.45,1.4l0.54,1.44l0.5,1.4l0.54,1.4l0.5,1.22l0.5,1.17
	l0.5,1.22l0.54,1.22l0.5,1.22l0.54,1.17l0.54,1.17l0.59,1.17l0.54,1.17l0.72,1.44l0.72,1.4l0.72,1.4l0.77,1.4l0.77,1.44l0.77,1.4
	l0.81,1.4l0.81,1.4l0.86,1.4l0.86,1.44l0.86,1.4l0.9,1.4l0.86,1.35l0.86,1.31l0.9,1.31l0.9,1.35l0.9,1.31 M106.89,477.75l0.86,1.22
	l0.81,1.26l0.81,1.22l0.81,1.22l0.81,1.22l0.77,1.22l0.77,1.22l0.81,1.35l0.81,1.35l0.81,1.35l0.77,1.35l0.77,1.35l0.72,1.31
	l0.72,1.35l0.72,1.35l0.72,1.35l0.68,1.35l0.63,1.31l0.63,1.35l0.63,1.31l0.59,1.31l0.63,1.35l0.59,1.35l0.54,1.35l0.54,1.35
	l0.54,1.35l0.54,1.31l0.5,1.35l0.45,1.31l0.45,1.31l0.5,1.35l0.41,1.35l0.45,1.35l0.41,1.35l0.36,1.35l0.41,1.35l0.36,1.35
	l0.32,1.35l0.36,1.35l0.27,1.35l0.32,1.35l0.27,1.35l0.27,1.31l0.23,1.35l0.23,1.31l0.23,1.35l0.18,1.35l0.18,1.35l0.18,1.35
	l0.14,1.35l0.14,1.35l0.09,1.35l0.14,1.35l0.05,1.35l0.09,1.35l0.04,1.35l0.05,1.35v1.35v1.35v1.35l-0.05,1.22l-0.04,1.26
	l-0.05,1.22l-0.04,1.26l-0.09,1.26l-0.09,1.22l-0.14,1.35l-0.13,1.35l-0.18,1.35l-0.14,1.35l-0.18,1.35l-0.23,1.31l-0.23,1.35
	l-0.23,1.31l-0.23,1.31l-0.27,1.35l-0.27,1.35l-0.32,1.35l-0.32,1.35l-0.32,1.35l-0.36,1.35l-0.36,1.35l-0.36,1.35l-0.41,1.35
	l-0.41,1.35l-0.45,1.35l-0.45,1.35l-0.45,1.35l-0.5,1.35l-0.45,1.26l-0.45,1.22l-0.5,1.26l-0.5,1.22l-0.5,1.26l-0.5,1.22l-0.59,1.35
	l-0.63,1.35l-0.59,1.35l-0.63,1.35l-0.68,1.35l-0.63,1.35l-0.68,1.35l-0.68,1.22l-0.63,1.26l-0.68,1.22l-0.68,1.26l-0.68,1.22
	l-0.72,1.26l-0.72,1.22l-0.72,1.22l-0.77,1.26l-0.77,1.22l-0.77,1.26l-0.77,1.22l-0.77,1.17l-0.77,1.17l-0.77,1.17l-0.81,1.17
	l-0.81,1.13 M106.53,789.55l-0.81-0.59 M105.72,10.94l0.81-0.54 M106.89,322.15l0.86,1.22l0.81,1.26l0.81,1.22l0.81,1.22l0.81,1.22
	l0.77,1.22l0.77,1.22l0.81,1.35l0.81,1.35l0.81,1.35l0.77,1.35l0.77,1.35l0.72,1.31l0.72,1.35l0.72,1.35l0.72,1.35l0.68,1.35
	l0.63,1.31l0.63,1.35l0.63,1.31l0.59,1.31l0.63,1.35l0.59,1.35l0.54,1.35l0.54,1.35l0.54,1.35l0.54,1.31l0.5,1.35l0.45,1.31
	l0.45,1.31l0.5,1.35l0.41,1.35l0.45,1.35l0.41,1.35l0.36,1.35l0.41,1.35l0.36,1.35l0.32,1.35l0.36,1.35l0.27,1.35l0.32,1.35
	l0.27,1.35l0.27,1.31l0.23,1.35l0.23,1.31l0.23,1.35l0.18,1.35l0.18,1.35l0.18,1.35l0.14,1.35l0.14,1.35l0.09,1.35l0.14,1.35
	l0.05,1.35l0.09,1.35l0.04,1.35l0.05,1.35v1.35v1.35v1.35l-0.05,1.22l-0.04,1.26l-0.05,1.22l-0.04,1.26l-0.09,1.26l-0.09,1.22
	l-0.14,1.35l-0.13,1.35l-0.18,1.35l-0.14,1.35l-0.18,1.35l-0.23,1.31l-0.23,1.35l-0.23,1.31l-0.23,1.31l-0.27,1.35l-0.27,1.35
	l-0.32,1.35l-0.32,1.35l-0.32,1.35l-0.36,1.35l-0.36,1.35l-0.36,1.35l-0.41,1.35l-0.41,1.35l-0.45,1.35l-0.45,1.35l-0.45,1.35
	l-0.5,1.35l-0.45,1.26l-0.45,1.22l-0.5,1.26l-0.5,1.22l-0.5,1.26l-0.5,1.22l-0.59,1.35l-0.63,1.35l-0.59,1.35l-0.63,1.35l-0.68,1.35
	l-0.63,1.35l-0.68,1.35l-0.68,1.22l-0.63,1.26l-0.68,1.22l-0.68,1.26l-0.68,1.22l-0.72,1.26l-0.72,1.22l-0.72,1.22l-0.77,1.26
	l-0.77,1.22l-0.77,1.26l-0.77,1.22l-0.77,1.17l-0.77,1.17l-0.77,1.17l-0.81,1.17l-0.81,1.13 M106.89,633.36l0.86,1.26l0.81,1.22
	l0.86,1.22l0.81,1.22l0.77,1.26l0.77,1.22l0.77,1.22l0.86,1.35l0.81,1.35l0.77,1.35l0.81,1.35l0.72,1.35l0.77,1.35l0.72,1.35
	l0.72,1.35l0.68,1.35l0.72,1.35l0.63,1.31l0.63,1.35l0.63,1.31l0.59,1.35l0.63,1.35l0.59,1.35l0.54,1.35l0.59,1.35l0.5,1.35
	l0.54,1.31l0.5,1.35l0.45,1.31l0.5,1.35l0.45,1.35l0.41,1.35l0.45,1.35l0.41,1.35l0.36,1.35l0.41,1.35l0.36,1.35l0.32,1.35
	l0.32,1.35l0.32,1.35l0.32,1.35l0.27,1.35l0.27,1.35l0.23,1.31l0.23,1.35l0.18,1.35l0.23,1.35l0.18,1.35l0.13,1.35l0.14,1.35
	l0.14,1.35l0.14,1.35l0.09,1.35l0.09,1.4l0.05,1.35l0.04,1.35l0.05,1.35v1.35v1.35v1.35l-0.05,1.26l-0.04,1.26l-0.05,1.22
	l-0.09,1.26l-0.09,1.22l-0.09,1.26l-0.14,1.35l-0.14,1.35l-0.14,1.35l-0.18,1.35l-0.18,1.35l-0.23,1.35l-0.23,1.31l-0.23,1.35
	l-0.27,1.31l-0.27,1.35l-0.27,1.4l-0.32,1.35l-0.32,1.35l-0.32,1.35l-0.36,1.35l-0.36,1.35l-0.41,1.35l-0.41,1.35l-0.41,1.35
	l-0.45,1.4l-0.45,1.35l-0.45,1.35l-0.5,1.35l-0.45,1.22l-0.5,1.26l-0.45,1.26l-0.54,1.22l-0.5,1.26l-0.54,1.22l-0.59,1.35
	l-0.59,1.35l-0.63,1.35l-0.63,1.35l-0.68,1.4l-0.68,1.35l-0.68,1.35l-0.63,1.22l-0.68,1.26l-0.68,1.22l-0.68,1.26l-0.72,1.22
	l-0.72,1.26l-0.72,1.22l-0.72,1.26l-0.77,1.22l-0.77,1.26l-0.77,1.26l-0.81,1.22l-0.77,1.17l-0.77,1.17l-0.81,1.17l-0.77,1.17
	l-0.81,1.17 M106.89,166.54l0.86,1.22l0.81,1.26l0.81,1.22l0.81,1.22l0.81,1.22l0.77,1.22l0.77,1.22l0.81,1.35l0.81,1.35l0.81,1.35
	l0.77,1.35l0.77,1.35l0.72,1.31l0.72,1.35l0.72,1.35l0.72,1.35l0.68,1.35l0.63,1.31l0.63,1.35l0.63,1.31l0.59,1.31l0.63,1.35
	l0.59,1.35l0.54,1.35l0.54,1.35l0.54,1.35l0.54,1.31l0.5,1.35l0.45,1.31l0.45,1.31l0.5,1.35l0.41,1.35l0.45,1.35l0.41,1.35
	l0.36,1.35l0.41,1.35l0.36,1.35l0.32,1.35l0.36,1.35l0.27,1.35l0.32,1.35l0.27,1.35l0.27,1.31l0.23,1.35l0.23,1.31l0.23,1.35
	l0.18,1.35l0.18,1.35l0.18,1.35l0.14,1.35l0.14,1.35l0.09,1.35l0.14,1.35l0.05,1.35l0.09,1.35l0.04,1.35l0.05,1.35v1.35v1.35v1.35
	l-0.05,1.22l-0.04,1.26l-0.05,1.22l-0.04,1.26l-0.09,1.26l-0.09,1.22l-0.14,1.35l-0.13,1.35l-0.18,1.35l-0.14,1.35l-0.18,1.35
	l-0.23,1.31l-0.23,1.35l-0.23,1.31l-0.23,1.31l-0.27,1.35l-0.27,1.35l-0.32,1.35l-0.32,1.35l-0.32,1.35l-0.36,1.35l-0.36,1.35
	l-0.36,1.35l-0.41,1.35l-0.41,1.35l-0.45,1.35l-0.45,1.35l-0.45,1.35l-0.5,1.35l-0.45,1.26l-0.45,1.22l-0.5,1.26l-0.5,1.22
	l-0.5,1.26l-0.5,1.22l-0.59,1.35l-0.63,1.35l-0.59,1.35l-0.63,1.35l-0.68,1.35l-0.63,1.35l-0.68,1.35l-0.68,1.22l-0.63,1.26
	l-0.68,1.22l-0.68,1.26l-0.68,1.22l-0.72,1.26l-0.72,1.22l-0.72,1.22l-0.77,1.26l-0.77,1.22l-0.77,1.26l-0.77,1.22l-0.77,1.17
	l-0.77,1.17l-0.77,1.17l-0.81,1.17l-0.81,1.13 M106.53,10.4l0.81,1.22l0.86,1.22l0.81,1.26l0.81,1.22l0.81,1.22l0.81,1.22l0.77,1.26
	l0.81,1.35l0.81,1.35l0.81,1.31l0.77,1.35l0.81,1.35l0.72,1.35l0.77,1.35l0.72,1.35l0.68,1.35l0.68,1.35l0.68,1.35l0.63,1.31
	l0.63,1.35l0.63,1.31l0.59,1.35l0.59,1.35l0.59,1.35l0.59,1.35l0.54,1.35l0.5,1.35l0.5,1.31l0.5,1.35l0.45,1.31l0.5,1.35l0.41,1.35
	l0.45,1.35l0.41,1.4l0.41,1.35l0.36,1.35l0.36,1.35l0.36,1.35l0.36,1.35l0.32,1.35l0.27,1.35l0.27,1.35l0.27,1.35l0.27,1.31
	l0.23,1.35l0.18,1.31l0.23,1.35l0.18,1.35l0.18,1.35l0.14,1.4l0.13,1.35l0.14,1.35l0.09,1.35l0.09,1.35l0.09,1.35l0.04,1.35
	l0.05,1.35v1.4v1.35v1.35l-0.05,1.22v1.26l-0.09,1.26l-0.04,1.22l-0.09,1.26l-0.09,1.26l-0.14,1.35l-0.13,1.35l-0.14,1.35
	l-0.18,1.35l-0.18,1.35l-0.18,1.31l-0.23,1.35l-0.23,1.31l-0.23,1.35l-0.27,1.35l-0.27,1.35l-0.32,1.35l-0.32,1.35l-0.32,1.35
	l-0.36,1.4l-0.36,1.35l-0.36,1.35l-0.41,1.35l-0.41,1.35l-0.45,1.35l-0.45,1.35l-0.45,1.35l-0.5,1.35l-0.45,1.26l-0.45,1.26
	l-0.5,1.22l-0.5,1.26l-0.5,1.22l-0.5,1.26l-0.59,1.35l-0.63,1.35l-0.59,1.35l-0.63,1.35l-0.68,1.35l-0.68,1.35l-0.68,1.35
	l-0.63,1.26l-0.63,1.22l-0.68,1.26l-0.68,1.22l-0.72,1.26l-0.68,1.22l-0.72,1.26l-0.77,1.26l-0.72,1.22l-0.77,1.26l-0.77,1.22
	l-0.81,1.26l-0.77,1.17l-0.77,1.17l-0.77,1.13l-0.81,1.17l-0.81,1.17 M42.69,10.4l0.77,0.54 M42.69,10.4l-0.86,1.22l-0.86,1.22
	l-0.81,1.26l-0.81,1.22l-0.81,1.22l-0.77,1.22L37.01,19l-0.86,1.35l-0.81,1.35L34.54,23l-0.77,1.35l-0.77,1.35l-0.77,1.35
	l-0.72,1.35l-0.72,1.35l-0.72,1.35l-0.68,1.35l-0.68,1.35l-0.63,1.31l-0.63,1.35l-0.59,1.31l-0.63,1.35l-0.59,1.35l-0.59,1.35
	l-0.54,1.35L24,44.52l-0.54,1.35l-0.5,1.31l-0.5,1.35l-0.45,1.31l-0.45,1.35l-0.45,1.35l-0.45,1.35l-0.41,1.4l-0.41,1.35l-0.36,1.35
	l-0.36,1.35l-0.36,1.35l-0.32,1.35l-0.32,1.35l-0.32,1.35l-0.27,1.35l-0.27,1.35l-0.23,1.31l-0.23,1.35l-0.23,1.31l-0.23,1.35
	l-0.18,1.35l-0.14,1.35l-0.18,1.4l-0.13,1.35l-0.14,1.35l-0.09,1.35l-0.09,1.35l-0.04,1.35l-0.09,1.35v1.35l-0.05,1.4v1.35v1.35
	l0.05,1.22l0.04,1.26l0.05,1.26l0.04,1.22l0.09,1.26l0.09,1.26l0.14,1.35l0.13,1.35l0.14,1.35l0.18,1.35l0.18,1.35l0.18,1.31
	l0.23,1.35l0.23,1.31l0.27,1.35l0.23,1.35l0.32,1.35L18.1,114l0.32,1.35l0.36,1.35l0.32,1.4l0.36,1.35l0.41,1.35l0.41,1.35
	l0.41,1.35l0.41,1.35l0.45,1.35l0.45,1.35l0.5,1.35l0.45,1.26l0.45,1.26l0.5,1.22l0.5,1.26l0.5,1.22l0.54,1.26l0.59,1.35l0.59,1.35
	l0.63,1.35l0.63,1.35l0.63,1.35l0.68,1.35l0.68,1.35l0.63,1.26l0.68,1.22l0.63,1.26l0.72,1.22l0.68,1.26l0.72,1.22l0.72,1.26
	l0.72,1.26l0.77,1.22l0.77,1.26l0.77,1.22l0.77,1.26l0.77,1.17l0.77,1.17l0.81,1.13l0.77,1.17l0.81,1.17 M42.28,166.54l-0.86,1.22
	l-0.81,1.26l-0.81,1.22L39,171.45l-0.77,1.22l-0.81,1.22l-0.77,1.22l-0.81,1.35l-0.81,1.35l-0.77,1.35l-0.81,1.35l-0.72,1.35
	l-0.77,1.31l-0.72,1.35l-0.72,1.35l-0.68,1.35l-0.68,1.35l-0.68,1.31l-0.63,1.35l-0.63,1.31l-0.59,1.31l-0.59,1.35l-0.59,1.35
	l-0.59,1.35l-0.54,1.35l-0.54,1.35l-0.5,1.31l-0.5,1.35l-0.5,1.31l-0.45,1.31l-0.45,1.35l-0.45,1.35l-0.41,1.35l-0.41,1.35
	l-0.41,1.35l-0.36,1.35l-0.36,1.35l-0.36,1.35L18.37,218l-0.32,1.35l-0.32,1.35l-0.27,1.35l-0.23,1.31l-0.27,1.35l-0.23,1.31
	l-0.18,1.35l-0.23,1.35l-0.18,1.35l-0.14,1.35l-0.18,1.35l-0.14,1.35l-0.09,1.35l-0.09,1.35l-0.09,1.35l-0.09,1.35l-0.04,1.35v1.35
	l-0.05,1.35v1.35v1.35l0.05,1.22l0.04,1.26l0.05,1.22l0.09,1.26l0.09,1.26l0.09,1.22l0.09,1.35l0.13,1.35l0.18,1.35l0.18,1.35
	l0.18,1.35l0.18,1.31l0.23,1.35l0.23,1.31l0.23,1.31l0.27,1.35l0.32,1.35l0.27,1.35l0.32,1.35l0.36,1.35l0.32,1.35l0.36,1.35
	l0.41,1.35l0.41,1.35l0.41,1.35l0.41,1.35l0.45,1.35l0.45,1.35l0.5,1.35l0.45,1.26l0.45,1.22l0.5,1.26l0.5,1.22l0.5,1.26l0.54,1.22
	l0.59,1.35l0.59,1.35l0.63,1.35l0.63,1.35l0.63,1.35l0.68,1.35l0.68,1.35l0.63,1.22l0.63,1.26l0.68,1.22l0.68,1.26l0.72,1.22
	l0.68,1.26l0.72,1.22l0.77,1.22l0.72,1.26l0.77,1.22l0.77,1.26l0.81,1.22l0.72,1.17l0.77,1.17l0.81,1.17l0.77,1.17l0.81,1.13
	 M42.28,322.15l-0.86,1.22l-0.81,1.26l-0.81,1.22L39,327.05l-0.77,1.22l-0.81,1.22l-0.77,1.22l-0.81,1.35l-0.81,1.35l-0.77,1.35
	l-0.81,1.35l-0.72,1.35l-0.77,1.31l-0.72,1.35l-0.72,1.35l-0.68,1.35l-0.68,1.35l-0.68,1.31l-0.63,1.35l-0.63,1.31l-0.59,1.31
	l-0.59,1.35l-0.59,1.35l-0.59,1.35l-0.54,1.35l-0.54,1.35l-0.5,1.31l-0.5,1.35l-0.5,1.31l-0.45,1.31l-0.45,1.35l-0.45,1.35
	l-0.41,1.35l-0.41,1.35l-0.41,1.35l-0.36,1.35l-0.36,1.35l-0.36,1.35l-0.32,1.35l-0.32,1.35l-0.32,1.35l-0.27,1.35l-0.23,1.31
	l-0.27,1.35l-0.23,1.31l-0.18,1.35l-0.23,1.35l-0.18,1.35l-0.14,1.35l-0.18,1.35l-0.14,1.35l-0.09,1.35l-0.09,1.35l-0.09,1.35
	l-0.09,1.35l-0.04,1.35v1.35l-0.05,1.35v1.35v1.35l0.05,1.22l0.04,1.26l0.05,1.22l0.09,1.26l0.09,1.26l0.09,1.22l0.09,1.35
	l0.13,1.35l0.18,1.35l0.18,1.35l0.18,1.35l0.18,1.31l0.23,1.35l0.23,1.31l0.23,1.31l0.27,1.35l0.32,1.35l0.27,1.35l0.32,1.35
	l0.36,1.35l0.32,1.35l0.36,1.35l0.41,1.35l0.41,1.35l0.41,1.35l0.41,1.35l0.45,1.35l0.45,1.35l0.5,1.35l0.45,1.26l0.45,1.22
	l0.5,1.26l0.5,1.22l0.5,1.26l0.54,1.22l0.59,1.35l0.59,1.35l0.63,1.35l0.63,1.35l0.63,1.35l0.68,1.35l0.68,1.35l0.63,1.22l0.63,1.26
	l0.68,1.22l0.68,1.26l0.72,1.22l0.68,1.26l0.72,1.22l0.77,1.22l0.72,1.26l0.77,1.22l0.77,1.26l0.81,1.22l0.72,1.17l0.77,1.17
	l0.81,1.17l0.77,1.17l0.81,1.13 M42.28,477.75l-0.86,1.22l-0.81,1.26l-0.81,1.22L39,482.66l-0.77,1.22l-0.81,1.22l-0.77,1.22
	l-0.81,1.35l-0.81,1.35l-0.77,1.35l-0.81,1.35l-0.72,1.35l-0.77,1.31l-0.72,1.35l-0.72,1.35l-0.68,1.35l-0.68,1.35l-0.68,1.31
	l-0.63,1.35l-0.63,1.31l-0.59,1.31l-0.59,1.35l-0.59,1.35l-0.59,1.35l-0.54,1.35l-0.54,1.35l-0.5,1.31l-0.5,1.35l-0.5,1.31
	l-0.45,1.31l-0.45,1.35l-0.45,1.35l-0.41,1.35l-0.41,1.35l-0.41,1.35l-0.36,1.35l-0.36,1.35l-0.36,1.35l-0.32,1.35l-0.32,1.35
	l-0.32,1.35l-0.27,1.35l-0.23,1.31l-0.27,1.35l-0.23,1.31l-0.18,1.35l-0.23,1.35l-0.18,1.35l-0.14,1.35l-0.18,1.35l-0.14,1.35
	l-0.09,1.35l-0.09,1.35l-0.09,1.35l-0.09,1.35l-0.04,1.35v1.35l-0.05,1.35v1.35v1.35l0.05,1.22l0.04,1.26l0.05,1.22l0.09,1.26
	l0.09,1.26l0.09,1.22l0.09,1.35l0.13,1.35l0.18,1.35l0.18,1.35l0.18,1.35l0.18,1.31l0.23,1.35l0.23,1.31l0.23,1.31l0.27,1.35
	l0.32,1.35l0.27,1.35l0.32,1.35l0.36,1.35l0.32,1.35l0.36,1.35l0.41,1.35l0.41,1.35l0.41,1.35l0.41,1.35l0.45,1.35l0.45,1.35
	l0.5,1.35l0.45,1.26l0.45,1.22l0.5,1.26l0.5,1.22l0.5,1.26l0.54,1.22l0.59,1.35l0.59,1.35l0.63,1.35l0.63,1.35l0.63,1.35l0.68,1.35
	l0.68,1.35l0.63,1.22l0.63,1.26l0.68,1.22l0.68,1.26l0.72,1.22l0.68,1.26l0.72,1.22l0.77,1.22l0.72,1.26l0.77,1.22l0.77,1.26
	l0.81,1.22l0.72,1.17l0.77,1.17l0.81,1.17l0.77,1.17l0.81,1.13 M42.28,633.36l-0.86,1.26l-0.81,1.22l-0.81,1.22L39,638.26
	l-0.81,1.26l-0.77,1.22l-0.77,1.22l-0.81,1.35l-0.81,1.35l-0.81,1.35l-0.77,1.35l-0.77,1.35l-0.77,1.35l-0.72,1.35l-0.72,1.35
	l-0.68,1.35l-0.68,1.35l-0.68,1.31l-0.63,1.35l-0.63,1.31l-0.59,1.35l-0.59,1.35l-0.59,1.35l-0.59,1.35l-0.54,1.35l-0.54,1.35
	l-0.5,1.31l-0.5,1.35l-0.5,1.31l-0.45,1.35l-0.45,1.35l-0.45,1.35l-0.41,1.35l-0.41,1.35l-0.41,1.35l-0.36,1.35L19,682.3l-0.36,1.35
	L18.33,685l-0.32,1.35l-0.27,1.35l-0.32,1.35l-0.23,1.35l-0.23,1.31l-0.23,1.35l-0.23,1.35l-0.18,1.35l-0.18,1.35l-0.18,1.35
	l-0.14,1.35l-0.14,1.35l-0.14,1.35l-0.09,1.35l-0.05,1.4l-0.09,1.35l-0.04,1.35l-0.05,1.35v1.35v1.35l0.05,1.35v1.26l0.04,1.26
	l0.09,1.22l0.05,1.26l0.09,1.22l0.09,1.26l0.14,1.35l0.14,1.35l0.18,1.35l0.18,1.35l0.18,1.35l0.18,1.35l0.23,1.31l0.23,1.35
	l0.27,1.31l0.27,1.35l0.27,1.4l0.32,1.35l0.32,1.35l0.36,1.35l0.36,1.35l0.36,1.35l0.36,1.35l0.41,1.35l0.45,1.35l0.41,1.4
	l0.45,1.35l0.5,1.35l0.45,1.35l0.5,1.22l0.45,1.26l0.5,1.26l0.5,1.22l0.5,1.26l0.54,1.22l0.59,1.35l0.63,1.35l0.59,1.35l0.68,1.35
	l0.63,1.4l0.68,1.35l0.68,1.35l0.68,1.22l0.63,1.26l0.68,1.22l0.68,1.26l0.72,1.22l0.72,1.26l0.72,1.22l0.72,1.26l0.77,1.22
	l0.77,1.26l0.81,1.26l0.77,1.22l0.77,1.17l0.81,1.17l0.77,1.17l0.81,1.17l0.81,1.17 M43.45,788.96l-0.77,0.59"/>
<g>
</g>
<g>
</g>
<g>
</g>
<g>
</g>
<g>
</g>
<g>
</g>
</svg>
