<?xml version="1.0" encoding="utf-8"?>
<!-- Generator: Adobe Illustrator 23.0.4, SVG Export Plug-In . SVG Version: 6.00 Build 0)  -->
<svg version="1.1" id="Layer_1" xmlns="http://www.w3.org/2000/svg" xmlns:xlink="http://www.w3.org/1999/xlink" x="0px" y="0px"
	 viewBox="0 0 792 123.33" style="enable-background:new 0 0 792 123.33;" xml:space="preserve">
<style type="text/css">
	.st0{fill:none;stroke:#FFFFFF;stroke-width:0.36;stroke-linecap:round;stroke-linejoin:round;stroke-miterlimit:10;}
</style>
<path class="st0" d="M785.99,93.15V30.88 M7.97,30.88v62.27 M630.39,93.15l1.31,0.86l1.26,0.9l1.26,0.86l1.31,0.81l1.26,0.86
	l1.26,0.81l1.22,0.72l1.22,0.77l1.17,0.72l1.22,0.72l1.22,0.68l1.22,0.72l1.17,0.68l1.22,0.63l1.22,0.68l1.17,0.63l1.22,0.59
	l1.17,0.63l1.17,0.59l1.17,0.54l1.22,0.59l1.22,0.54l1.17,0.59l1.22,0.5l1.22,0.54l1.17,0.5l1.17,0.5l1.17,0.45l1.22,0.45l1.4,0.54
	l1.4,0.54l1.4,0.5l1.44,0.45l1.4,0.45l1.4,0.45l1.22,0.36l1.17,0.36l1.22,0.36l1.22,0.32l1.22,0.32l1.17,0.27l1.17,0.32l1.17,0.23
	l1.17,0.27l1.44,0.32l1.4,0.27l1.4,0.23l1.4,0.23l1.44,0.23l1.4,0.23l1.4,0.18l1.4,0.14l1.4,0.18l1.44,0.09l1.4,0.14l1.4,0.09
	l1.35,0.09l1.31,0.04l1.31,0.05h1.35h1.31h1.31h1.26l1.26-0.05l1.31-0.04l1.26-0.09l1.26-0.09l1.22-0.09l1.22-0.09l1.17-0.09
	l1.22-0.14l1.22-0.14l1.22-0.18l1.17-0.14l1.22-0.18l1.22-0.23l1.17-0.18l1.22-0.23l1.17-0.23l1.17-0.27l1.17-0.23l1.22-0.27
	l1.22-0.27l1.17-0.32l1.22-0.32l1.22-0.32l1.17-0.32l1.17-0.36l1.17-0.36l1.22-0.36l1.4-0.45l1.4-0.5l1.4-0.45l1.44-0.54l1.4-0.5
	l1.4-0.54l1.22-0.5l1.17-0.5l1.22-0.5l1.22-0.54l1.22-0.5l1.17-0.54l1.17-0.54l1.17-0.59l1.17-0.54l1.44-0.72l1.4-0.72l1.4-0.72
	l1.4-0.77l1.44-0.77l1.4-0.77l1.4-0.81l1.4-0.81l1.4-0.86l1.44-0.86l1.4-0.86l1.4-0.9l1.35-0.86l1.31-0.86l1.31-0.9l1.35-0.9
	l1.31-0.9 M785.99,30.88l-1.26-0.9l-1.26-0.86l-1.31-0.86l-1.26-0.86l-1.26-0.81l-1.31-0.81l-1.17-0.77l-1.22-0.72l-1.22-0.72
	l-1.17-0.72l-1.22-0.72l-1.22-0.68l-1.22-0.68l-1.17-0.68l-1.22-0.63l-1.22-0.63l-1.17-0.63l-1.17-0.59l-1.17-0.59l-1.22-0.59
	l-1.17-0.54l-1.22-0.59l-1.22-0.54l-1.17-0.54l-1.22-0.5l-1.17-0.5l-1.22-0.5l-1.17-0.5l-1.17-0.45l-1.4-0.54l-1.4-0.5l-1.44-0.5
	l-1.4-0.5l-1.4-0.45l-1.4-0.45l-1.22-0.36l-1.22-0.32l-1.17-0.36l-1.22-0.32l-1.22-0.32l-1.17-0.32l-1.17-0.27l-1.22-0.27
	l-1.17-0.27l-1.4-0.27l-1.4-0.27l-1.4-0.27l-1.44-0.23l-1.4-0.23l-1.4-0.18l-1.4-0.18l-1.44-0.18l-1.4-0.14l-1.4-0.14l-1.4-0.09
	l-1.4-0.09l-1.35-0.09l-1.31-0.04l-1.35-0.05h-1.31l-1.35-0.04h-1.26l-1.26,0.04l-1.31,0.05l-1.26,0.04l-1.26,0.05l-1.31,0.09
	L699.36,4l-1.22,0.09l-1.22,0.13l-1.17,0.14l-1.22,0.14l-1.22,0.14l-1.22,0.18l-1.17,0.18l-1.22,0.18l-1.22,0.23l-1.17,0.23
	l-1.17,0.23L685,6.07l-1.22,0.27l-1.17,0.27l-1.22,0.27l-1.22,0.32l-1.17,0.32l-1.22,0.32l-1.17,0.32l-1.22,0.36l-1.17,0.36
	l-1.17,0.36l-1.4,0.45l-1.4,0.45l-1.44,0.5l-1.4,0.5l-1.4,0.54l-1.4,0.54l-1.22,0.5l-1.22,0.5l-1.17,0.5l-1.22,0.5l-1.22,0.54
	l-1.17,0.54l-1.17,0.54l-1.22,0.54l-1.17,0.59l-1.4,0.68l-1.4,0.72l-1.4,0.77l-1.44,0.72l-1.4,0.77l-1.4,0.81l-1.4,0.77L642.63,23
	l-1.4,0.81l-1.4,0.86l-1.4,0.9l-1.4,0.86l-1.35,0.9l-1.31,0.86l-1.35,0.9l-1.31,0.9l-1.35,0.9 M630.39,30.88l-1.26-0.9l-1.26-0.86
	l-1.31-0.86l-1.26-0.86l-1.26-0.81l-1.31-0.81l-1.17-0.77l-1.22-0.72l-1.22-0.72l-1.17-0.72l-1.22-0.72l-1.22-0.68l-1.22-0.68
	l-1.17-0.68l-1.22-0.63l-1.22-0.63l-1.17-0.63l-1.17-0.59l-1.17-0.59l-1.22-0.59l-1.17-0.54l-1.22-0.59l-1.22-0.54l-1.17-0.54
	l-1.22-0.5l-1.17-0.5l-1.22-0.5l-1.17-0.5l-1.17-0.45l-1.4-0.54l-1.4-0.5l-1.44-0.5l-1.4-0.5l-1.4-0.45l-1.4-0.45l-1.22-0.36
	l-1.22-0.32l-1.17-0.36l-1.22-0.32l-1.22-0.32l-1.17-0.32l-1.17-0.27l-1.22-0.27l-1.17-0.27l-1.4-0.27l-1.4-0.27l-1.4-0.27
	l-1.44-0.23l-1.4-0.23l-1.4-0.18l-1.4-0.18l-1.44-0.18l-1.4-0.14l-1.4-0.14l-1.4-0.09l-1.4-0.09l-1.35-0.09l-1.31-0.04l-1.35-0.05
	h-1.31l-1.35-0.04h-1.26l-1.26,0.04l-1.31,0.05l-1.26,0.04l-1.26,0.05l-1.31,0.09L543.76,4l-1.22,0.09l-1.22,0.13l-1.17,0.14
	l-1.22,0.14l-1.22,0.14l-1.22,0.18l-1.17,0.18l-1.22,0.18l-1.22,0.23l-1.17,0.23l-1.17,0.23l-1.17,0.23l-1.22,0.27l-1.17,0.27
	l-1.22,0.27l-1.22,0.32l-1.17,0.32l-1.22,0.32l-1.17,0.32l-1.22,0.36l-1.17,0.36l-1.17,0.36l-1.4,0.45l-1.4,0.45l-1.44,0.5l-1.4,0.5
	l-1.4,0.54l-1.4,0.54l-1.22,0.5l-1.22,0.5l-1.17,0.5l-1.22,0.5l-1.22,0.54l-1.17,0.54l-1.17,0.54l-1.22,0.54l-1.17,0.59l-1.4,0.68
	l-1.4,0.72l-1.4,0.77l-1.44,0.72l-1.4,0.77l-1.4,0.81l-1.4,0.77L487.03,23l-1.4,0.81l-1.4,0.86l-1.4,0.9l-1.4,0.86l-1.35,0.9
	l-1.31,0.86l-1.35,0.9l-1.31,0.9l-1.35,0.9 M474.78,30.88l-1.22-0.86l-1.22-0.81l-1.22-0.86l-1.22-0.81l-1.26-0.77l-1.22-0.81
	l-1.22-0.77l-1.35-0.81l-1.35-0.81l-1.35-0.81l-1.35-0.77l-1.35-0.77l-1.31-0.77l-1.35-0.72l-1.35-0.72l-1.35-0.72l-1.35-0.68
	l-1.31-0.68l-1.35-0.63l-1.31-0.63l-1.35-0.59l-1.31-0.63l-1.35-0.59l-1.35-0.54l-1.35-0.59l-1.35-0.5l-1.31-0.54l-1.35-0.5
	l-1.31-0.5l-1.35-0.45l-1.35-0.45l-1.35-0.45L431.38,9l-1.35-0.45l-1.31-0.36l-1.35-0.41l-1.35-0.36l-1.35-0.32l-1.35-0.36
	l-1.35-0.27l-1.35-0.32l-1.35-0.27l-1.31-0.27l-1.35-0.23l-1.31-0.23L414,4.95l-1.35-0.18l-1.35-0.18l-1.35-0.18l-1.35-0.14
	l-1.35-0.14L405.89,4l-1.35-0.09l-1.35-0.09l-1.35-0.05l-1.35-0.04l-1.35-0.05l-1.35-0.04h-1.35l-1.35,0.04h-1.26l-1.22,0.05
	l-1.26,0.04l-1.22,0.09l-1.26,0.09l-1.22,0.09l-1.35,0.14l-1.35,0.14l-1.35,0.13l-1.35,0.18l-1.35,0.18l-1.31,0.23l-1.31,0.18
	l-1.35,0.23l-1.31,0.27l-1.35,0.27l-1.35,0.27l-1.35,0.32l-1.35,0.32l-1.35,0.32l-1.35,0.36l-1.35,0.36l-1.35,0.41l-1.35,0.36
	l-1.35,0.45l-1.35,0.41l-1.35,0.45l-1.35,0.5l-1.35,0.45l-1.22,0.45l-1.26,0.5l-1.22,0.45l-1.26,0.5l-1.22,0.54l-1.26,0.5
	l-1.35,0.59l-1.31,0.63l-1.35,0.63l-1.35,0.63l-1.35,0.63l-1.35,0.68l-1.35,0.68L338.63,19l-1.22,0.63l-1.26,0.68l-1.22,0.68
	l-1.26,0.72l-1.22,0.72l-1.26,0.72l-1.22,0.72l-1.26,0.77l-1.22,0.77l-1.26,0.77l-1.22,0.81l-1.17,0.77l-1.17,0.77l-1.17,0.77
	l-1.17,0.81l-1.17,0.81 M319.18,30.88l-1.26-0.9l-1.26-0.86l-1.31-0.86l-1.26-0.86l-1.26-0.81l-1.31-0.81l-1.17-0.77l-1.22-0.72
	l-1.22-0.72l-1.17-0.72l-1.22-0.72l-1.22-0.68l-1.22-0.68l-1.17-0.68l-1.22-0.63l-1.22-0.63l-1.17-0.63l-1.17-0.59l-1.17-0.59
	l-1.22-0.59l-1.17-0.54l-1.22-0.59l-1.22-0.54L290,14.27l-1.22-0.5l-1.17-0.5l-1.22-0.5l-1.17-0.5l-1.17-0.45l-1.4-0.54l-1.4-0.5
	l-1.44-0.5l-1.4-0.5l-1.4-0.45l-1.4-0.45l-1.22-0.36l-1.22-0.32l-1.17-0.36l-1.22-0.32l-1.22-0.32l-1.17-0.32l-1.17-0.27l-1.22-0.27
	l-1.17-0.27l-1.4-0.27l-1.4-0.27l-1.4-0.27l-1.44-0.23l-1.4-0.23l-1.4-0.18l-1.4-0.18l-1.44-0.18l-1.4-0.14l-1.4-0.14l-1.4-0.09
	l-1.4-0.09l-1.35-0.09l-1.31-0.04l-1.35-0.05h-1.31l-1.35-0.04h-1.26l-1.26,0.04l-1.31,0.05l-1.26,0.04l-1.26,0.05l-1.31,0.09
	L232.55,4l-1.22,0.09l-1.22,0.13l-1.17,0.14l-1.22,0.14l-1.22,0.14l-1.22,0.18l-1.17,0.18l-1.22,0.18L221.7,5.4l-1.17,0.23
	l-1.17,0.23l-1.17,0.23l-1.22,0.27l-1.17,0.27l-1.22,0.27l-1.22,0.32l-1.17,0.32l-1.22,0.32l-1.17,0.32l-1.22,0.36l-1.17,0.36
	l-1.17,0.36l-1.4,0.45l-1.4,0.45l-1.44,0.5l-1.4,0.5l-1.4,0.54l-1.4,0.54l-1.22,0.5l-1.22,0.5l-1.17,0.5l-1.22,0.5l-1.22,0.54
	l-1.17,0.54l-1.17,0.54l-1.22,0.54l-1.17,0.59l-1.4,0.68l-1.4,0.72l-1.4,0.77l-1.44,0.72l-1.4,0.77l-1.4,0.81l-1.4,0.77L175.82,23
	l-1.4,0.81l-1.4,0.86l-1.4,0.9l-1.4,0.86l-1.35,0.9l-1.31,0.86l-1.35,0.9l-1.31,0.9l-1.35,0.9 M163.57,30.88l-1.26-0.9l-1.26-0.86
	l-1.31-0.86l-1.26-0.86l-1.26-0.81l-1.31-0.81l-1.17-0.77l-1.22-0.72l-1.22-0.72l-1.17-0.72l-1.22-0.72l-1.22-0.68l-1.22-0.68
	l-1.17-0.68l-1.22-0.63l-1.22-0.63l-1.17-0.63l-1.17-0.59l-1.17-0.59l-1.22-0.59L138,15.93l-1.22-0.59l-1.22-0.54l-1.17-0.54
	l-1.22-0.5l-1.17-0.5l-1.22-0.5l-1.17-0.5l-1.17-0.45l-1.4-0.54l-1.4-0.5l-1.44-0.5l-1.4-0.5l-1.4-0.45l-1.4-0.45l-1.22-0.36
	l-1.22-0.32l-1.17-0.36l-1.22-0.32L114,7.24l-1.17-0.32l-1.17-0.27l-1.22-0.27l-1.17-0.27l-1.4-0.27l-1.4-0.27l-1.4-0.27l-1.44-0.23
	l-1.4-0.23l-1.4-0.18l-1.4-0.18l-1.44-0.18l-1.4-0.14l-1.4-0.14l-1.4-0.09l-1.4-0.09l-1.35-0.09l-1.31-0.04l-1.35-0.05h-1.31
	l-1.35-0.04h-1.26l-1.26,0.04l-1.31,0.05l-1.26,0.04l-1.26,0.05l-1.31,0.09L76.94,4l-1.22,0.09l-1.22,0.13l-1.17,0.14L72.13,4.5
	l-1.22,0.14l-1.22,0.18l-1.17,0.18l-1.22,0.18L66.09,5.4l-1.17,0.23l-1.17,0.23l-1.17,0.23l-1.22,0.27l-1.17,0.27l-1.22,0.27
	L57.76,7.2l-1.17,0.32l-1.22,0.32l-1.17,0.32l-1.22,0.36l-1.17,0.36l-1.17,0.36l-1.4,0.45l-1.4,0.45l-1.44,0.5l-1.4,0.5l-1.4,0.54
	l-1.4,0.54l-1.22,0.5l-1.22,0.5l-1.17,0.5l-1.22,0.5l-1.22,0.54l-1.17,0.54l-1.17,0.54l-1.22,0.54l-1.17,0.59l-1.4,0.68l-1.4,0.72
	l-1.4,0.77l-1.44,0.72l-1.4,0.77l-1.4,0.81l-1.4,0.77L20.21,23l-1.4,0.81l-1.4,0.86l-1.4,0.9l-1.4,0.86l-1.35,0.9l-1.31,0.86
	l-1.35,0.9l-1.31,0.9l-1.35,0.9 M7.97,93.15l1.26,0.81l1.22,0.86l1.22,0.81l1.22,0.81l1.22,0.81l1.26,0.77l1.22,0.77l1.35,0.86
	l1.35,0.81l1.31,0.81l1.35,0.77l1.35,0.77l1.35,0.77l1.35,0.72l1.35,0.72l1.35,0.68l1.35,0.72l1.31,0.63l1.35,0.63l1.31,0.63
	l1.31,0.63l1.35,0.59l1.35,0.59l1.35,0.59l1.35,0.54l1.35,0.54l1.31,0.54l1.35,0.5l1.31,0.45l1.31,0.5l1.35,0.45l1.35,0.45
	l1.35,0.41l1.35,0.41l1.35,0.41l1.35,0.36l1.35,0.36l1.35,0.36l1.35,0.32l1.35,0.32l1.35,0.32l1.35,0.27l1.31,0.23l1.31,0.27
	l1.35,0.23l1.31,0.23l1.35,0.18l1.35,0.18l1.35,0.18l1.35,0.14l1.35,0.14l1.35,0.09l1.35,0.14l1.35,0.09l1.35,0.05l1.35,0.04
	l1.35,0.05H85h1.35h1.35l1.22-0.05l1.26-0.04l1.22-0.05l1.26-0.05l1.22-0.09l1.26-0.09l1.35-0.14l1.35-0.14l1.31-0.18l1.35-0.14
	l1.35-0.18l1.35-0.23l1.31-0.23l1.31-0.23l1.35-0.23l1.35-0.27l1.35-0.32l1.35-0.27l1.35-0.32l1.35-0.36l1.35-0.32l1.35-0.41
	l1.35-0.36l1.35-0.41l1.35-0.41l1.35-0.45l1.31-0.45l1.35-0.45l1.35-0.5l1.26-0.45l1.22-0.45l1.26-0.5l1.22-0.5l1.26-0.5l1.22-0.54
	l1.35-0.59l1.35-0.59l1.35-0.63l1.35-0.63l1.35-0.68l1.35-0.63l1.35-0.72l1.26-0.63l1.22-0.68l1.26-0.63l1.22-0.72l1.22-0.68
	l1.26-0.72l1.22-0.72l1.26-0.72l1.22-0.77l1.26-0.77l1.22-0.81l1.26-0.77l1.17-0.77l1.17-0.77l1.17-0.81l1.13-0.77l1.17-0.81
	 M163.57,93.15l1.31,0.86l1.26,0.9l1.26,0.86l1.31,0.81l1.26,0.86l1.26,0.81l1.22,0.72l1.22,0.77l1.17,0.72l1.22,0.72l1.22,0.68
	l1.22,0.72l1.17,0.68l1.22,0.63l1.22,0.68l1.17,0.63l1.22,0.59l1.17,0.63l1.17,0.59l1.17,0.54l1.22,0.59l1.22,0.54l1.17,0.59
	l1.22,0.5l1.22,0.54l1.17,0.5l1.17,0.5l1.17,0.45l1.22,0.45l1.4,0.54l1.4,0.54l1.4,0.5l1.44,0.45l1.4,0.45l1.4,0.45l1.22,0.36
	l1.17,0.36l1.22,0.36l1.22,0.32l1.22,0.32l1.17,0.27l1.17,0.32l1.17,0.23l1.17,0.27l1.44,0.32l1.4,0.27l1.4,0.23l1.4,0.23l1.44,0.23
	l1.4,0.23l1.4,0.18l1.4,0.14l1.4,0.18l1.44,0.09l1.4,0.14l1.4,0.09l1.35,0.09l1.31,0.04l1.31,0.05h1.35h1.31h1.31h1.26l1.26-0.05
	l1.31-0.04l1.26-0.09l1.26-0.09l1.22-0.09l1.22-0.09l1.17-0.09l1.22-0.14l1.22-0.14l1.22-0.18l1.17-0.14l1.22-0.18l1.22-0.23
	l1.17-0.18l1.22-0.23l1.17-0.23l1.17-0.27l1.17-0.23l1.22-0.27l1.22-0.27l1.17-0.32l1.22-0.32l1.22-0.32l1.17-0.32l1.17-0.36
	l1.17-0.36l1.22-0.36l1.4-0.45l1.4-0.5l1.4-0.45l1.44-0.54l1.4-0.5l1.4-0.54l1.22-0.5l1.17-0.5l1.22-0.5l1.22-0.54l1.22-0.5
	l1.17-0.54l1.17-0.54l1.17-0.59l1.17-0.54l1.44-0.72l1.4-0.72l1.4-0.72l1.4-0.77l1.44-0.77l1.4-0.77l1.4-0.81l1.4-0.81l1.4-0.86
	l1.44-0.86l1.4-0.86l1.4-0.9l1.35-0.86l1.31-0.86l1.31-0.9l1.35-0.9l1.31-0.9 M319.18,93.15l1.31,0.86l1.26,0.9l1.26,0.86l1.31,0.81
	l1.26,0.86l1.26,0.81l1.22,0.72l1.22,0.77l1.17,0.72l1.22,0.72l1.22,0.68l1.22,0.72l1.17,0.68l1.22,0.63l1.22,0.68l1.17,0.63
	l1.22,0.59l1.17,0.63l1.17,0.59l1.17,0.54l1.22,0.59l1.22,0.54l1.17,0.59l1.22,0.5l1.22,0.54l1.17,0.5l1.17,0.5l1.17,0.45l1.22,0.45
	l1.4,0.54l1.4,0.54l1.4,0.5l1.44,0.45l1.4,0.45l1.4,0.45l1.22,0.36l1.17,0.36l1.22,0.36l1.22,0.32l1.22,0.32l1.17,0.27l1.17,0.32
	l1.17,0.23l1.17,0.27l1.44,0.32l1.4,0.27l1.4,0.23l1.4,0.23l1.44,0.23l1.4,0.23l1.4,0.18l1.4,0.14l1.4,0.18l1.44,0.09l1.4,0.14
	l1.4,0.09l1.35,0.09l1.31,0.04l1.31,0.05h1.35h1.31h1.31h1.26l1.26-0.05l1.31-0.04l1.26-0.09l1.26-0.09l1.22-0.09l1.22-0.09
	l1.17-0.09l1.22-0.14l1.22-0.14l1.22-0.18l1.17-0.14l1.22-0.18l1.22-0.23l1.17-0.18l1.22-0.23l1.17-0.23l1.17-0.27l1.17-0.23
	l1.22-0.27l1.22-0.27l1.17-0.32l1.22-0.32l1.22-0.32l1.17-0.32l1.17-0.36l1.17-0.36l1.22-0.36l1.4-0.45l1.4-0.5l1.4-0.45l1.44-0.54
	l1.4-0.5l1.4-0.54l1.22-0.5l1.17-0.5l1.22-0.5l1.22-0.54l1.22-0.5l1.17-0.54l1.17-0.54l1.17-0.59l1.17-0.54l1.44-0.72l1.4-0.72
	l1.4-0.72l1.4-0.77l1.44-0.77l1.4-0.77l1.4-0.81l1.4-0.81l1.4-0.86l1.44-0.86l1.4-0.86l1.4-0.9l1.35-0.86l1.31-0.86l1.31-0.9
	l1.35-0.9l1.31-0.9 M474.78,93.15l1.31,0.86l1.26,0.9l1.26,0.86l1.31,0.81l1.26,0.86l1.26,0.81l1.22,0.72l1.22,0.77l1.17,0.72
	l1.22,0.72l1.22,0.68l1.22,0.72l1.17,0.68l1.22,0.63l1.22,0.68l1.17,0.63l1.22,0.59l1.17,0.63l1.17,0.59l1.17,0.54l1.22,0.59
	l1.22,0.54l1.17,0.59l1.22,0.5l1.22,0.54l1.17,0.5l1.17,0.5l1.17,0.45l1.22,0.45l1.4,0.54l1.4,0.54l1.4,0.5l1.44,0.45l1.4,0.45
	l1.4,0.45l1.22,0.36l1.17,0.36l1.22,0.36l1.22,0.32l1.22,0.32l1.17,0.27l1.17,0.32l1.17,0.23l1.17,0.27l1.44,0.32l1.4,0.27l1.4,0.23
	l1.4,0.23l1.44,0.23l1.4,0.23l1.4,0.18l1.4,0.14l1.4,0.18l1.44,0.09l1.4,0.14l1.4,0.09l1.35,0.09l1.31,0.04l1.31,0.05h1.35h1.31
	h1.31h1.26l1.26-0.05l1.31-0.04l1.26-0.09l1.26-0.09l1.22-0.09l1.22-0.09l1.17-0.09l1.22-0.14l1.22-0.14l1.22-0.18l1.17-0.14
	l1.22-0.18l1.22-0.23l1.17-0.18l1.22-0.23l1.17-0.23l1.17-0.27l1.17-0.23l1.22-0.27l1.22-0.27l1.17-0.32l1.22-0.32l1.22-0.32
	l1.17-0.32l1.17-0.36l1.17-0.36l1.22-0.36l1.4-0.45l1.4-0.5l1.4-0.45l1.44-0.54l1.4-0.5l1.4-0.54l1.22-0.5l1.17-0.5l1.22-0.5
	l1.22-0.54l1.22-0.5l1.17-0.54l1.17-0.54l1.17-0.59l1.17-0.54l1.44-0.72l1.4-0.72l1.4-0.72l1.4-0.77l1.44-0.77l1.4-0.77l1.4-0.81
	l1.4-0.81l1.4-0.86l1.44-0.86l1.4-0.86l1.4-0.9l1.35-0.86l1.31-0.86l1.31-0.9l1.35-0.9l1.31-0.9 M474.78,29.71l1.22-0.86l1.26-0.81
	l1.22-0.81l1.22-0.81l1.22-0.81l1.22-0.77l1.22-0.77l1.35-0.81l1.35-0.81l1.35-0.81l1.35-0.77l1.35-0.77l1.31-0.72l1.35-0.72
	l1.35-0.72l1.35-0.72l1.35-0.68l1.31-0.63l1.35-0.63l1.31-0.63l1.31-0.59l1.35-0.63l1.35-0.59l1.35-0.54l1.35-0.54l1.35-0.54
	l1.31-0.54l1.35-0.5l1.31-0.45l1.31-0.45l1.35-0.5l1.35-0.41l1.35-0.45l1.35-0.41l1.35-0.36l1.35-0.41l1.35-0.36l1.35-0.32
	l1.35-0.36l1.35-0.27l1.35-0.32l1.35-0.27l1.31-0.27l1.35-0.23l1.31-0.23l1.35-0.23l1.35-0.18l1.35-0.18l1.35-0.18l1.35-0.14
	l1.35-0.14l1.35-0.09l1.35-0.14l1.35-0.05l1.35-0.09l1.35-0.04l1.35-0.05h1.35h1.35h1.35l1.22,0.05L557,2.79l1.22,0.05l1.26,0.04
	l1.26,0.09l1.22,0.09l1.35,0.14l1.35,0.13L566,3.51l1.35,0.14l1.35,0.18l1.31,0.23l1.35,0.23l1.31,0.23l1.31,0.23l1.35,0.27
	l1.35,0.27l1.35,0.32l1.35,0.32l1.35,0.32l1.35,0.36l1.35,0.36l1.35,0.36l1.35,0.41l1.35,0.41l1.35,0.45L590.18,9l1.35,0.45
	l1.35,0.5l1.26,0.45l1.22,0.45l1.26,0.5l1.22,0.5l1.26,0.5l1.22,0.5l1.35,0.59l1.35,0.63l1.35,0.59l1.35,0.63l1.35,0.68l1.35,0.63
	l1.35,0.68l1.22,0.68l1.26,0.63l1.22,0.68l1.26,0.68l1.22,0.68l1.26,0.72l1.22,0.72l1.22,0.72l1.26,0.77l1.22,0.77l1.26,0.77
	l1.22,0.77l1.17,0.77l1.17,0.77l1.17,0.77l1.17,0.81l1.13,0.81 M786.58,30.07l-0.59,0.81 M7.97,30.88l-0.54-0.81 M319.18,29.71
	l1.22-0.86l1.26-0.81l1.22-0.81l1.22-0.81l1.22-0.81l1.22-0.77l1.22-0.77l1.35-0.81l1.35-0.81l1.35-0.81l1.35-0.77l1.35-0.77
	l1.31-0.72l1.35-0.72l1.35-0.72l1.35-0.72l1.35-0.68l1.31-0.63l1.35-0.63l1.31-0.63l1.31-0.59l1.35-0.63l1.35-0.59l1.35-0.54
	l1.35-0.54l1.35-0.54l1.31-0.54l1.35-0.5l1.31-0.45l1.31-0.45l1.35-0.5l1.35-0.41l1.35-0.45l1.35-0.41l1.35-0.36l1.35-0.41
	l1.35-0.36l1.35-0.32l1.35-0.36l1.35-0.27l1.35-0.32l1.35-0.27L376,4.63l1.35-0.23l1.31-0.23L380,3.96l1.35-0.18l1.35-0.18
	l1.35-0.18l1.35-0.14l1.35-0.14l1.35-0.09l1.35-0.14l1.35-0.05l1.35-0.09l1.35-0.04l1.35-0.05h1.35h1.35h1.35l1.22,0.05l1.26,0.04
	l1.22,0.05l1.26,0.04l1.26,0.09l1.22,0.09l1.35,0.14l1.35,0.13l1.35,0.18l1.35,0.14l1.35,0.18l1.31,0.23l1.35,0.23l1.31,0.23
	l1.31,0.23l1.35,0.27l1.35,0.27l1.35,0.32l1.35,0.32l1.35,0.32l1.35,0.36l1.35,0.36l1.35,0.36l1.35,0.41l1.35,0.41l1.35,0.45
	L434.57,9l1.35,0.45l1.35,0.5l1.26,0.45l1.22,0.45l1.26,0.5l1.22,0.5l1.26,0.5l1.22,0.5l1.35,0.59l1.35,0.63l1.35,0.59l1.35,0.63
	l1.35,0.68l1.35,0.63l1.35,0.68l1.22,0.68l1.26,0.63l1.22,0.68l1.26,0.68l1.22,0.68l1.26,0.72l1.22,0.72l1.22,0.72l1.26,0.77
	l1.22,0.77l1.26,0.77l1.22,0.77l1.17,0.77l1.17,0.77l1.17,0.77l1.17,0.81l1.13,0.81 M630.39,29.71l1.26-0.86l1.22-0.81l1.22-0.86
	l1.22-0.81l1.26-0.77l1.22-0.77l1.22-0.77l1.35-0.86l1.35-0.81l1.35-0.77l1.35-0.81l1.35-0.72l1.35-0.77l1.35-0.72l1.35-0.72
	l1.35-0.68l1.35-0.72l1.31-0.63l1.35-0.63l1.31-0.63l1.35-0.59l1.35-0.63l1.35-0.59l1.35-0.54l1.35-0.59l1.35-0.5l1.31-0.54
	l1.35-0.5l1.31-0.45l1.35-0.5l1.35-0.45l1.35-0.41l1.35-0.45l1.35-0.41l1.35-0.36l1.35-0.41l1.35-0.36l1.35-0.32l1.35-0.32
	l1.35-0.32l1.35-0.32l1.35-0.27l1.35-0.27l1.31-0.23l1.35-0.23l1.35-0.18l1.35-0.23l1.35-0.18l1.35-0.13l1.35-0.14l1.35-0.14
	l1.35-0.14l1.35-0.09l1.4-0.09l1.35-0.05l1.35-0.04l1.35-0.05h1.35h1.35h1.35l1.26,0.05l1.26,0.04l1.22,0.05l1.26,0.09l1.22,0.09
	l1.26,0.09l1.35,0.14l1.35,0.14l1.35,0.14l1.35,0.18l1.35,0.18l1.35,0.23l1.31,0.23l1.35,0.23l1.31,0.27l1.35,0.27l1.4,0.27
	l1.35,0.32l1.35,0.32l1.35,0.32l1.35,0.36l1.35,0.36l1.35,0.41l1.35,0.41l1.35,0.41l1.4,0.45l1.35,0.45l1.35,0.45l1.35,0.5
	l1.22,0.45l1.26,0.5l1.26,0.45l1.22,0.54l1.26,0.5l1.22,0.54l1.35,0.59l1.35,0.59l1.35,0.63l1.35,0.63l1.4,0.68l1.35,0.68l1.35,0.68
	l1.22,0.63l1.26,0.68l1.22,0.68l1.26,0.68l1.22,0.72l1.26,0.72l1.22,0.72l1.26,0.72l1.22,0.77l1.26,0.77l1.26,0.77l1.22,0.81
	l1.17,0.77l1.17,0.77l1.17,0.81l1.17,0.77l1.17,0.81 M163.57,29.71l1.22-0.86l1.26-0.81l1.22-0.81l1.22-0.81l1.22-0.81l1.22-0.77
	l1.22-0.77l1.35-0.81l1.35-0.81l1.35-0.81l1.35-0.77l1.35-0.77l1.31-0.72l1.35-0.72l1.35-0.72l1.35-0.72l1.35-0.68l1.31-0.63
	l1.35-0.63l1.31-0.63l1.31-0.59l1.35-0.63l1.35-0.59l1.35-0.54l1.35-0.54l1.35-0.54l1.31-0.54l1.35-0.5l1.31-0.45l1.31-0.45
	l1.35-0.5l1.35-0.41l1.35-0.45l1.35-0.41l1.35-0.36l1.35-0.41l1.35-0.36l1.35-0.32l1.35-0.36l1.35-0.27l1.35-0.32l1.35-0.27
	l1.31-0.27l1.35-0.23l1.31-0.23l1.35-0.23l1.35-0.18l1.35-0.18l1.35-0.18l1.35-0.14l1.35-0.14l1.35-0.09l1.35-0.14l1.35-0.05
	l1.35-0.09l1.35-0.04l1.35-0.05h1.35h1.35h1.35l1.22,0.05l1.26,0.04L247,2.83l1.26,0.04l1.26,0.09l1.22,0.09l1.35,0.14l1.35,0.13
	l1.35,0.18l1.35,0.14l1.35,0.18l1.31,0.23l1.35,0.23l1.31,0.23l1.31,0.23l1.35,0.27l1.35,0.27l1.35,0.32l1.35,0.32l1.35,0.32
	l1.35,0.36l1.35,0.36l1.35,0.36l1.35,0.41l1.35,0.41l1.35,0.45L278.97,9l1.35,0.45l1.35,0.5l1.26,0.45l1.22,0.45l1.26,0.5l1.22,0.5
	l1.26,0.5l1.22,0.5l1.35,0.59l1.35,0.63l1.35,0.59l1.35,0.63l1.35,0.68l1.35,0.63l1.35,0.68l1.22,0.68l1.26,0.63l1.22,0.68
	l1.26,0.68l1.22,0.68l1.26,0.72l1.22,0.72l1.22,0.72l1.26,0.77l1.22,0.77l1.26,0.77l1.22,0.77l1.17,0.77l1.17,0.77l1.17,0.77
	l1.17,0.81l1.13,0.81 M7.43,30.07l1.22-0.81l1.22-0.86l1.26-0.81l1.22-0.81l1.22-0.81l1.22-0.81l1.26-0.77l1.35-0.81l1.35-0.81
	l1.31-0.81l1.35-0.77l1.35-0.81l1.35-0.72l1.35-0.77l1.35-0.72l1.35-0.68l1.35-0.68l1.35-0.68l1.31-0.63l1.35-0.63l1.31-0.63
	l1.35-0.59l1.35-0.59l1.35-0.59l1.35-0.59l1.35-0.54l1.35-0.5l1.31-0.5l1.35-0.5l1.31-0.45l1.35-0.5l1.35-0.41l1.35-0.45l1.4-0.41
	l1.35-0.41l1.35-0.36l1.35-0.36l1.35-0.36l1.35-0.36l1.35-0.32l1.35-0.27l1.35-0.27l1.35-0.27l1.31-0.27l1.35-0.23l1.31-0.18
	l1.35-0.23l1.35-0.18l1.35-0.18l1.4-0.14l1.35-0.13l1.35-0.14l1.35-0.09l1.35-0.09l1.35-0.09l1.35-0.04l1.35-0.05h1.4h1.35h1.35
	l1.22,0.05h1.26l1.26,0.09l1.22,0.04l1.26,0.09l1.26,0.09l1.35,0.14l1.35,0.13l1.35,0.14l1.35,0.18l1.35,0.18L102.97,4l1.35,0.23
	l1.31,0.23l1.35,0.23l1.35,0.27l1.35,0.27l1.35,0.32l1.35,0.32l1.35,0.32l1.4,0.36l1.35,0.36l1.35,0.36l1.35,0.41l1.35,0.41
	l1.35,0.45l1.35,0.45l1.35,0.45l1.35,0.5l1.26,0.45l1.26,0.45l1.22,0.5l1.26,0.5l1.22,0.5l1.26,0.5l1.35,0.59l1.35,0.63l1.35,0.59
	l1.35,0.63l1.35,0.68l1.35,0.68l1.35,0.68l1.26,0.63l1.22,0.63l1.26,0.68l1.22,0.68l1.26,0.72l1.22,0.68l1.26,0.72l1.26,0.77
	l1.22,0.72l1.26,0.77l1.22,0.77l1.26,0.81l1.17,0.77l1.17,0.77l1.13,0.77l1.17,0.81l1.17,0.81 M7.43,93.92l0.54-0.77 M7.43,93.92
	l1.22,0.86l1.22,0.86l1.26,0.81l1.22,0.81l1.22,0.81l1.22,0.77l1.26,0.77l1.35,0.86l1.35,0.81l1.31,0.81l1.35,0.77l1.35,0.77
	l1.35,0.77l1.35,0.72l1.35,0.72l1.35,0.72l1.35,0.68l1.35,0.68l1.31,0.63l1.35,0.63l1.31,0.59l1.35,0.63l1.35,0.59l1.35,0.59
	l1.35,0.54l1.35,0.54l1.35,0.54l1.31,0.5l1.35,0.5l1.31,0.45l1.35,0.45l1.35,0.45l1.35,0.45l1.4,0.41l1.35,0.41l1.35,0.36l1.35,0.36
	l1.35,0.36l1.35,0.32l1.35,0.32l1.35,0.32l1.35,0.27l1.35,0.27l1.31,0.23l1.35,0.23l1.31,0.23l1.35,0.23l1.35,0.18l1.35,0.14
	l1.4,0.18l1.35,0.13l1.35,0.14l1.35,0.09l1.35,0.09l1.35,0.04l1.35,0.09h1.35l1.4,0.05h1.35h1.35l1.22-0.05l1.26-0.04l1.26-0.05
	l1.22-0.04l1.26-0.09l1.26-0.09l1.35-0.14l1.35-0.13l1.35-0.14l1.35-0.18l1.35-0.18l1.31-0.18l1.35-0.23l1.31-0.23l1.35-0.27
	l1.35-0.23l1.35-0.32l1.35-0.27l1.35-0.32l1.35-0.36l1.4-0.32l1.35-0.36l1.35-0.41l1.35-0.41l1.35-0.41l1.35-0.41l1.35-0.45
	l1.35-0.45l1.35-0.5l1.26-0.45l1.26-0.45l1.22-0.5l1.26-0.5l1.22-0.5l1.26-0.54l1.35-0.59l1.35-0.59l1.35-0.63l1.35-0.63l1.35-0.63
	l1.35-0.68l1.35-0.68l1.26-0.63l1.22-0.68l1.26-0.63l1.22-0.72l1.26-0.68l1.22-0.72l1.26-0.72l1.26-0.72l1.22-0.77l1.26-0.77
	L156.5,99l1.26-0.77l1.17-0.77l1.17-0.77l1.13-0.81l1.17-0.77l1.17-0.81 M163.57,94.32l1.22,0.86l1.26,0.81l1.22,0.81l1.22,0.81
	l1.22,0.77l1.22,0.81l1.22,0.77l1.35,0.81l1.35,0.81l1.35,0.77l1.35,0.81l1.35,0.72l1.31,0.77l1.35,0.72l1.35,0.72l1.35,0.68
	l1.35,0.68l1.31,0.68l1.35,0.63l1.31,0.63l1.31,0.59l1.35,0.59l1.35,0.59l1.35,0.59l1.35,0.54l1.35,0.54l1.31,0.5l1.35,0.5l1.31,0.5
	l1.31,0.45l1.35,0.45l1.35,0.45l1.35,0.41l1.35,0.41l1.35,0.41l1.35,0.36l1.35,0.36l1.35,0.36l1.35,0.32l1.35,0.32l1.35,0.32
	l1.35,0.27l1.31,0.23l1.35,0.27l1.31,0.23l1.35,0.18l1.35,0.23l1.35,0.18l1.35,0.14l1.35,0.18l1.35,0.14l1.35,0.09l1.35,0.09
	l1.35,0.09l1.35,0.09l1.35,0.04h1.35l1.35,0.05h1.35h1.35l1.22-0.05l1.26-0.04l1.22-0.05l1.26-0.09l1.26-0.09l1.22-0.09l1.35-0.09
	l1.35-0.13l1.35-0.18l1.35-0.18l1.35-0.18l1.31-0.18l1.35-0.23l1.31-0.23l1.31-0.23l1.35-0.27l1.35-0.32l1.35-0.27l1.35-0.32
	l1.35-0.36l1.35-0.32l1.35-0.36l1.35-0.41l1.35-0.41l1.35-0.41l1.35-0.41l1.35-0.45l1.35-0.45l1.35-0.5l1.26-0.45l1.22-0.45
	l1.26-0.5l1.22-0.5l1.26-0.5l1.22-0.54l1.35-0.59l1.35-0.59l1.35-0.63l1.35-0.63l1.35-0.63l1.35-0.68l1.35-0.68l1.22-0.63l1.26-0.63
	l1.22-0.68l1.26-0.68l1.22-0.72l1.26-0.68l1.22-0.72l1.22-0.77l1.26-0.72l1.22-0.77l1.26-0.77l1.22-0.81l1.17-0.72l1.17-0.77
	l1.17-0.81l1.17-0.77l1.13-0.81 M319.18,94.32l1.22,0.86l1.26,0.81l1.22,0.81l1.22,0.81l1.22,0.77l1.22,0.81l1.22,0.77l1.35,0.81
	l1.35,0.81l1.35,0.77l1.35,0.81l1.35,0.72l1.31,0.77l1.35,0.72l1.35,0.72l1.35,0.68l1.35,0.68l1.31,0.68l1.35,0.63l1.31,0.63
	l1.31,0.59l1.35,0.59l1.35,0.59l1.35,0.59l1.35,0.54l1.35,0.54l1.31,0.5l1.35,0.5l1.31,0.5l1.31,0.45l1.35,0.45l1.35,0.45l1.35,0.41
	l1.35,0.41l1.35,0.41l1.35,0.36l1.35,0.36l1.35,0.36l1.35,0.32l1.35,0.32l1.35,0.32l1.35,0.27l1.31,0.23l1.35,0.27l1.31,0.23
	l1.35,0.18l1.35,0.23l1.35,0.18l1.35,0.14l1.35,0.18l1.35,0.14l1.35,0.09l1.35,0.09l1.35,0.09l1.35,0.09l1.35,0.04h1.35l1.35,0.05
	h1.35h1.35l1.22-0.05l1.26-0.04l1.22-0.05l1.26-0.09l1.26-0.09l1.22-0.09l1.35-0.09l1.35-0.13l1.35-0.18l1.35-0.18l1.35-0.18
	l1.31-0.18l1.35-0.23l1.31-0.23l1.31-0.23l1.35-0.27l1.35-0.32l1.35-0.27l1.35-0.32l1.35-0.36l1.35-0.32l1.35-0.36l1.35-0.41
	l1.35-0.41l1.35-0.41l1.35-0.41l1.35-0.45l1.35-0.45l1.35-0.5l1.26-0.45l1.22-0.45l1.26-0.5l1.22-0.5l1.26-0.5l1.22-0.54l1.35-0.59
	l1.35-0.59l1.35-0.63l1.35-0.63l1.35-0.63l1.35-0.68l1.35-0.68l1.22-0.63l1.26-0.63l1.22-0.68l1.26-0.68l1.22-0.72l1.26-0.68
	l1.22-0.72l1.22-0.77l1.26-0.72l1.22-0.77l1.26-0.77l1.22-0.81l1.17-0.72l1.17-0.77l1.17-0.81l1.17-0.77l1.13-0.81 M474.78,94.32
	l1.22,0.86l1.26,0.81l1.22,0.81l1.22,0.81l1.22,0.77l1.22,0.81l1.22,0.77l1.35,0.81l1.35,0.81l1.35,0.77l1.35,0.81l1.35,0.72
	l1.31,0.77l1.35,0.72l1.35,0.72l1.35,0.68l1.35,0.68l1.31,0.68l1.35,0.63l1.31,0.63l1.31,0.59l1.35,0.59l1.35,0.59l1.35,0.59
	l1.35,0.54l1.35,0.54l1.31,0.5l1.35,0.5l1.31,0.5l1.31,0.45l1.35,0.45l1.35,0.45l1.35,0.41l1.35,0.41l1.35,0.41l1.35,0.36l1.35,0.36
	l1.35,0.36l1.35,0.32l1.35,0.32l1.35,0.32l1.35,0.27l1.31,0.23l1.35,0.27l1.31,0.23l1.35,0.18l1.35,0.23l1.35,0.18l1.35,0.14
	l1.35,0.18l1.35,0.14l1.35,0.09l1.35,0.09l1.35,0.09l1.35,0.09l1.35,0.04h1.35l1.35,0.05h1.35h1.35l1.22-0.05l1.26-0.04l1.22-0.05
	l1.26-0.09l1.26-0.09l1.22-0.09l1.35-0.09l1.35-0.13l1.35-0.18l1.35-0.18l1.35-0.18l1.31-0.18l1.35-0.23l1.31-0.23l1.31-0.23
	l1.35-0.27l1.35-0.32l1.35-0.27l1.35-0.32l1.35-0.36l1.35-0.32l1.35-0.36l1.35-0.41l1.35-0.41l1.35-0.41l1.35-0.41l1.35-0.45
	l1.35-0.45l1.35-0.5l1.26-0.45l1.22-0.45l1.26-0.5l1.22-0.5l1.26-0.5l1.22-0.54l1.35-0.59l1.35-0.59l1.35-0.63l1.35-0.63l1.35-0.63
	l1.35-0.68l1.35-0.68l1.22-0.63l1.26-0.63l1.22-0.68l1.26-0.68l1.22-0.72l1.26-0.68l1.22-0.72l1.22-0.77l1.26-0.72l1.22-0.77
	l1.26-0.77l1.22-0.81l1.17-0.72l1.17-0.77l1.17-0.81l1.17-0.77l1.13-0.81 M630.39,94.32l1.26,0.86l1.22,0.81l1.22,0.81l1.22,0.81
	l1.26,0.81l1.22,0.77l1.22,0.77l1.35,0.81l1.35,0.81l1.35,0.81l1.35,0.77l1.35,0.77l1.35,0.77l1.35,0.72l1.35,0.72l1.35,0.68
	l1.35,0.68l1.31,0.68l1.35,0.63l1.31,0.63l1.35,0.59l1.35,0.59l1.35,0.59l1.35,0.59l1.35,0.54l1.35,0.54l1.31,0.5l1.35,0.5l1.31,0.5
	l1.35,0.45l1.35,0.45l1.35,0.45l1.35,0.41l1.35,0.41l1.35,0.41l1.35,0.36l1.35,0.36l1.35,0.36l1.35,0.32l1.35,0.32l1.35,0.27
	l1.35,0.32l1.35,0.23l1.31,0.23l1.35,0.23l1.35,0.23l1.35,0.18l1.35,0.18l1.35,0.18l1.35,0.14l1.35,0.14l1.35,0.14l1.35,0.09
	l1.4,0.05l1.35,0.09l1.35,0.04l1.35,0.05h1.35h1.35l1.35-0.05h1.26l1.26-0.04l1.22-0.09l1.26-0.05l1.22-0.09l1.26-0.09l1.35-0.14
	l1.35-0.14l1.35-0.18l1.35-0.18l1.35-0.18l1.35-0.18l1.31-0.23l1.35-0.23l1.31-0.27l1.35-0.27l1.4-0.27l1.35-0.32l1.35-0.32
	l1.35-0.36l1.35-0.36l1.35-0.36l1.35-0.36l1.35-0.41l1.35-0.45l1.4-0.41l1.35-0.45l1.35-0.5l1.35-0.45l1.22-0.5l1.26-0.45l1.26-0.5
	l1.22-0.5l1.26-0.5l1.22-0.54l1.35-0.59l1.35-0.63l1.35-0.59l1.35-0.68l1.4-0.63l1.35-0.68l1.35-0.68l1.22-0.68l1.26-0.63l1.22-0.68
	l1.26-0.68l1.22-0.72l1.26-0.72l1.22-0.72l1.26-0.72l1.22-0.77l1.26-0.77l1.26-0.81l1.22-0.77l1.17-0.77l1.17-0.81l1.17-0.77
	l1.17-0.81l1.17-0.81 M785.99,93.15l0.59,0.77"/>
<g>
</g>
<g>
</g>
<g>
</g>
<g>
</g>
<g>
</g>
<g>
</g>
</svg>
